<svg id="47be3781-bad2-4e64-b0f2-6cad91cec856" data-name="Layer 1" xmlns="http://www.w3.org/2000/svg" viewBox="0 0 315 100"><defs><style>.\36 46d45ce-44f2-449c-b58a-59f0c08df5f6{fill:#c75b12;}.aceb3406-8822-4b7d-9e90-793264a54c63{fill:#0072a6;}.cec75246-bc13-4392-b497-1e4583fe0b5a{fill:#fff;}</style></defs><title>ieeeutd_logo</title><path class="646d45ce-44f2-449c-b58a-59f0c08df5f6" d="M214.24,14.32V35.05c0,1.19.06,2.4.17,3.63a8.5,8.5,0,0,0,1,3.32,6.33,6.33,0,0,0,2.41,2.41,11.4,11.4,0,0,0,9.11,0A6.26,6.26,0,0,0,229.3,42a8.68,8.68,0,0,0,1-3.32c.11-1.23.16-2.44.16-3.63V14.32h6.23V37.09a16,16,0,0,1-1,6,11.71,11.71,0,0,1-2.91,4.26,12.08,12.08,0,0,1-4.53,2.56,20.66,20.66,0,0,1-11.73,0A12,12,0,0,1,212,47.33,11.47,11.47,0,0,1,209,43.07a15.83,15.83,0,0,1-1-6V14.32Z"/><path class="646d45ce-44f2-449c-b58a-59f0c08df5f6" d="M222.34,52a20.56,20.56,0,0,1-6.25-.9,13.43,13.43,0,0,1-5-2.83,12.94,12.94,0,0,1-3.23-4.72,17.2,17.2,0,0,1-1.11-6.44v-24h8.72v22c0,1.15,0,2.33.16,3.52a7.3,7.3,0,0,0,.82,2.83,5,5,0,0,0,1.94,1.94,10.39,10.39,0,0,0,7.85,0,5,5,0,0,0,2-1.94,7.47,7.47,0,0,0,.82-2.83c.1-1.19.16-2.37.16-3.52v-22h8.72v24a17.19,17.19,0,0,1-1.12,6.44,12.79,12.79,0,0,1-3.22,4.72,13.43,13.43,0,0,1-5,2.83A20.56,20.56,0,0,1,222.34,52ZM209.26,15.57V37.09a14.78,14.78,0,0,0,.93,5.51,10.29,10.29,0,0,0,2.6,3.8,10.75,10.75,0,0,0,4.06,2.31,19.68,19.68,0,0,0,11,0,11,11,0,0,0,4.07-2.3,10.39,10.39,0,0,0,2.59-3.81,14.77,14.77,0,0,0,.94-5.51V15.57h-3.74V35.05c0,1.22-.06,2.48-.17,3.75a9.78,9.78,0,0,1-1.11,3.79,7.56,7.56,0,0,1-2.88,2.9,12.67,12.67,0,0,1-10.37,0,7.53,7.53,0,0,1-2.87-2.9,9.78,9.78,0,0,1-1.11-3.79c-.12-1.27-.17-2.53-.17-3.75V15.57Z"/><path class="646d45ce-44f2-449c-b58a-59f0c08df5f6" d="M271.3,14.32v6.23H260.09V50.44h-6.23V20.55H242.65V14.32Z"/><path class="646d45ce-44f2-449c-b58a-59f0c08df5f6" d="M261.33,51.69h-8.72V21.79H241.4V13.07h31.14v8.72H261.33ZM255.1,49.2h3.74V19.3h11.21V15.57H243.89V19.3H255.1Z"/><path class="646d45ce-44f2-449c-b58a-59f0c08df5f6" d="M292.26,14.32a16.75,16.75,0,0,1,7.18,1.42,13.28,13.28,0,0,1,5,3.87,16.63,16.63,0,0,1,2.86,5.74,25.74,25.74,0,0,1,.93,7,25.81,25.81,0,0,1-.93,7,16.72,16.72,0,0,1-2.86,5.74,13.49,13.49,0,0,1-5,3.87,16.91,16.91,0,0,1-7.18,1.41h-15V14.32Zm-2.74,29.9a15.1,15.1,0,0,0,5.83-1,8.47,8.47,0,0,0,3.57-2.63,9.65,9.65,0,0,0,1.76-4,24.53,24.53,0,0,0,.46-4.91,24.45,24.45,0,0,0-.46-4.91,9.65,9.65,0,0,0-1.76-4,8.57,8.57,0,0,0-3.57-2.64,15.31,15.31,0,0,0-5.83-.95h-6V44.22Z"/><path class="646d45ce-44f2-449c-b58a-59f0c08df5f6" d="M292.26,51.69H276V13.07h16.23A18.13,18.13,0,0,1,300,14.61a14.68,14.68,0,0,1,5.41,4.23A17.78,17.78,0,0,1,308.45,25a26.73,26.73,0,0,1,1,7.37,26.75,26.75,0,0,1-1,7.38,18,18,0,0,1-3.07,6.17A14.79,14.79,0,0,1,300,50.16,18.29,18.29,0,0,1,292.26,51.69ZM278.52,49.2h13.74a15.68,15.68,0,0,0,6.65-1.3,12.27,12.27,0,0,0,4.51-3.51,15.52,15.52,0,0,0,2.64-5.32,25.59,25.59,0,0,0,0-13.38,15.47,15.47,0,0,0-2.64-5.31,12.07,12.07,0,0,0-4.51-3.51,15.59,15.59,0,0,0-6.65-1.3H278.52Zm11-3.74h-7.26V18.06h7.26a16.61,16.61,0,0,1,6.31,1,9.8,9.8,0,0,1,4.08,3,10.9,10.9,0,0,1,2,4.47,27.41,27.41,0,0,1,0,10.32,10.9,10.9,0,0,1-2,4.47,9.81,9.81,0,0,1-4.07,3A16.49,16.49,0,0,1,289.52,45.46ZM284.75,43h4.77a14.23,14.23,0,0,0,5.35-.85,7.35,7.35,0,0,0,3.06-2.25,8.41,8.41,0,0,0,1.53-3.45,24.9,24.9,0,0,0,0-9.32,8.41,8.41,0,0,0-1.53-3.45,7.35,7.35,0,0,0-3.06-2.25,14.26,14.26,0,0,0-5.35-.85h-4.77Z"/><polygon class="aceb3406-8822-4b7d-9e90-793264a54c63" points="83.07 52.15 83.07 13.07 93.89 13.07 93.89 52.15 83.07 52.15 83.07 52.15"/><polygon class="aceb3406-8822-4b7d-9e90-793264a54c63" points="99.57 52.15 99.57 13.07 129.34 13.07 129.34 20.65 110.4 20.65 110.4 28.71 127.82 28.71 127.82 36.29 110.4 36.29 110.4 44.57 129.34 44.57 129.34 52.15 99.57 52.15 99.57 52.15"/><polygon class="aceb3406-8822-4b7d-9e90-793264a54c63" points="135.4 52.15 135.4 13.07 165.16 13.07 165.16 20.65 146.22 20.65 146.22 28.71 163.64 28.71 163.64 36.29 146.22 36.29 146.22 44.57 165.16 44.57 165.16 52.15 135.4 52.15 135.4 52.15"/><polygon class="aceb3406-8822-4b7d-9e90-793264a54c63" points="171.22 52.15 171.22 13.07 200.98 13.07 200.98 20.65 182.05 20.65 182.05 28.71 199.47 28.71 199.47 36.29 182.05 36.29 182.05 44.57 200.98 44.57 200.98 52.15 171.22 52.15 171.22 52.15"/><path class="aceb3406-8822-4b7d-9e90-793264a54c63" d="M30.16,57.05c0-3.47,4.34-6.31,6.94-7.71-.41-.43-.82-.85-1.24-1.27-1.46-1.47-3-2.85-4.53-4.14C24,45.62,3.93,51.31,3.93,62.72c0,20.75,50.61,34.58,50.61,34.58s5.55-23.54,37.22-29.58C91.76,67.72,30.16,67.2,30.16,57.05Z"/><path class="cec75246-bc13-4392-b497-1e4583fe0b5a" d="M71.82,31.34c-1.79-1.64-7.33-5.25-12-9.89S51.57,11.27,50,9.48c-1.23-1.22-1.93-1.22-3.15,0-1.62,1.79-5.29,7.37-9.89,12s-10.19,8.4-12,9.89c-1.22,1.23-1.22,1.93,0,3.16,1.79,1.59,7.37,5.28,12,9.89s8.27,10.18,9.89,12c1.22,1.22,1.92,1.22,3.15,0,1.59-1.79,5.25-7.33,9.89-12s10.22-8.42,12-9.89C73,33.27,73,32.57,71.82,31.34Z"/><path class="aceb3406-8822-4b7d-9e90-793264a54c63" d="M73.61,31.22c-1.93-1.77-7.91-5.66-12.91-10.66S51.78,9.59,50,7.66c-1.32-1.32-2.08-1.32-3.39,0C44.9,9.59,41,15.6,36,20.56S25,29.61,23.08,31.22c-1.32,1.32-1.32,2.08,0,3.4C25,36.34,31,40.32,36,45.28s8.91,11,10.66,12.9c1.31,1.32,2.07,1.32,3.39,0,1.72-1.93,5.66-7.9,10.66-12.9s11-9.08,12.91-10.66C74.92,33.3,74.92,32.54,73.61,31.22Zm-6,3.06a96.45,96.45,0,0,1-8.47,9.88h0a90.11,90.11,0,0,1-9.33,8.08h0a2.44,2.44,0,0,1-2.93,0A93.76,93.76,0,0,1,37.33,44h0a95.85,95.85,0,0,1-8.28-9.54h0a2.46,2.46,0,0,1,0-2.94A94.11,94.11,0,0,1,37.33,22h0a96.63,96.63,0,0,1,9.54-8.27,2.46,2.46,0,0,1,2.93,0h0A94.93,94.93,0,0,1,59.35,22h0a91.11,91.11,0,0,1,8.28,9.68h0A2.06,2.06,0,0,1,67.63,34.28Z"/><path class="aceb3406-8822-4b7d-9e90-793264a54c63" d="M66.24,31.73a82.71,82.71,0,0,0-7.68-9h0a88.05,88.05,0,0,0-8.85-7.68h0a2.24,2.24,0,0,0-2.7,0,89.13,89.13,0,0,0-8.86,7.68h0a89.5,89.5,0,0,0-7.68,8.85,2.31,2.31,0,0,0,0,2.73h0a89.5,89.5,0,0,0,7.68,8.85h0A87.69,87.69,0,0,0,47,50.86a2.28,2.28,0,0,0,2.72,0h0a83.1,83.1,0,0,0,8.67-7.49h0a88.74,88.74,0,0,0,7.86-9.17,1.89,1.89,0,0,0,0-2.46ZM48.3,19.06l2.9,8.36H49.27l.36,8a7.44,7.44,0,0,1-2.62,0l.35-7.95h-2ZM46.62,45.71,47,37.53a14.66,14.66,0,0,0,2.81,0l.37,8.19A9.11,9.11,0,0,1,46.62,45.71Zm1.22-8.66c-6,0-10.9-1.94-10.91-4.33,0-1.64,2.29-3.07,5.69-3.8l2.58,1.66c-2.64.48-4.46,1.45-4.46,2.57,0,1.59,3.66,2.88,8.17,2.88,3.88,0,8.23-1.29,8.23-2.88,0-1-1.18-1.58-2.31-2.14l-1.54.35-.81-2.25,5,1.23-1.13.29s1.91,1,2.32,2.09C59.47,35.13,54.25,37.05,47.84,37.05Z"/></svg>