<svg id="e7e7c9ab-639a-4b6d-a887-122271c2d8c0" data-name="Layer 1" xmlns="http://www.w3.org/2000/svg" viewBox="0 0 100 100"><defs><style>.\37 7335114-ce41-4461-b422-f029a869fd11{fill:#fff;}.\38 30c4c17-73f7-4544-938e-bbb1f19321cb{fill:#c75b12;}.\32 d944c31-8b76-41dc-93b2-5fa9de2b6b68{fill:#0072a6;}</style></defs><title>IEEEUTD Icon Color</title><ellipse class="77335114-ce41-4461-b422-f029a869fd11" cx="50.54" cy="32.53" rx="12.05" ry="14.63"/><path class="830c4c17-73f7-4544-938e-bbb1f19321cb" d="M32.31,56.66c0-3.47,4.35-6.31,6.95-7.71-.41-.43-.82-.85-1.24-1.27-1.46-1.47-3-2.85-4.53-4.14-7.3,1.69-27.41,7.38-27.41,18.78,0,20.75,50.62,34.59,50.62,34.59s5.55-23.54,37.22-29.59C93.92,67.32,32.31,66.81,32.31,56.66Z"/><path class="77335114-ce41-4461-b422-f029a869fd11" d="M33.49,43.54C35,44.83,36.56,46.21,38,47.68c.42.42.83.84,1.24,1.27-2.6,1.4-6.95,4.24-6.95,7.71,0,10.15,61.61,10.66,61.61,10.66C62.25,73.37,56.7,96.91,56.7,96.91S6.08,83.07,6.08,62.32c0-11.4,20.11-17.09,27.41-18.78m0-2a2.3,2.3,0,0,0-.45.05c-8.71,2-29,8.07-29,20.73,0,22,50,35.94,52.09,36.52a2.33,2.33,0,0,0,.53.07,2.09,2.09,0,0,0,1-.28,2,2,0,0,0,.92-1.26,33.77,33.77,0,0,1,6.48-11.9c6.79-8.34,16.6-13.78,29.17-16.18a2,2,0,0,0-.36-4c-.15,0-15.51-.15-30.66-1.52-28.63-2.6-29-7.11-29-7.15,0-1.75,2.2-4,5.89-5.94a2,2,0,0,0,1-1.45,2,2,0,0,0-.52-1.69c-.42-.44-.84-.88-1.28-1.32-1.37-1.37-2.89-2.76-4.65-4.24a2,2,0,0,0-1.29-.48Z"/><path class="77335114-ce41-4461-b422-f029a869fd11" d="M78.87,30.62c-2.16-2-8.86-6.34-14.47-11.95s-10-12.31-12-14.47c-1.47-1.48-2.33-1.48-3.81,0-2,2.16-6.38,8.91-12,14.47s-12.31,10.15-14.47,12c-1.48,1.48-1.48,2.34,0,3.81,2.16,1.93,8.91,6.39,14.47,12s10,12.31,12,14.47c1.48,1.48,2.34,1.48,3.81,0,1.93-2.16,6.35-8.86,12-14.47s12.35-10.18,14.47-12C80.35,33,80.35,32.1,78.87,30.62ZM71,34a102.48,102.48,0,0,1-9,10.46h0A94.58,94.58,0,0,1,52.1,53h0A2.6,2.6,0,0,1,49,53a102,102,0,0,1-10.1-8.75h0a99.77,99.77,0,0,1-8.75-10.09h0a2.61,2.61,0,0,1,0-3.11,101.2,101.2,0,0,1,8.75-10.09h0A101.2,101.2,0,0,1,49,12.17a2.6,2.6,0,0,1,3.1,0h0a101.2,101.2,0,0,1,10.09,8.75h0A97.12,97.12,0,0,1,71,31.16h0A2.16,2.16,0,0,1,71,34Z"/><path class="77335114-ce41-4461-b422-f029a869fd11" d="M73.13,31.08c-1.72-1.59-7.06-5.07-11.54-9.54s-8-9.82-9.53-11.54c-1.18-1.18-1.86-1.18-3,0-1.56,1.72-5.1,7.1-9.53,11.54s-9.82,8.1-11.55,9.54c-1.17,1.17-1.17,1.85,0,3,1.73,1.54,7.11,5.1,11.55,9.54s8,9.81,9.53,11.54c1.18,1.18,1.86,1.18,3,0,1.53-1.73,5.06-7.07,9.53-11.54s9.85-8.12,11.54-9.54C74.31,32.93,74.31,32.25,73.13,31.08Zm-5.34,2.73a84.84,84.84,0,0,1-7.58,8.84h0a79.52,79.52,0,0,1-8.35,7.22h0a2.21,2.21,0,0,1-2.62,0,85.19,85.19,0,0,1-8.53-7.4h0a83.43,83.43,0,0,1-7.4-8.54h0a2.19,2.19,0,0,1,0-2.62,83.77,83.77,0,0,1,7.4-8.53h0a83.77,83.77,0,0,1,8.53-7.4,2.21,2.21,0,0,1,2.63,0h0a87.9,87.9,0,0,1,8.53,7.4h0a81.77,81.77,0,0,1,7.41,8.65h0A1.83,1.83,0,0,1,67.79,33.81Z"/><path class="2d944c31-8b76-41dc-93b2-5fa9de2b6b68" d="M75.76,30.83c-1.93-1.77-7.9-5.66-12.9-10.66S53.94,9.2,52.2,7.27C50.88,6,50.12,6,48.8,7.27c-1.74,1.93-5.7,7.94-10.66,12.9s-11,9-12.9,10.66c-1.32,1.32-1.32,2.08,0,3.4,1.93,1.72,7.94,5.7,12.9,10.66s8.92,11,10.66,12.9c1.32,1.32,2.08,1.32,3.4,0,1.72-1.93,5.66-7.9,10.66-12.9s11-9.08,12.9-10.66C77.08,32.91,77.08,32.15,75.76,30.83Zm-6,3.06a97.09,97.09,0,0,1-8.48,9.88h0A89.76,89.76,0,0,1,52,51.85h0a2.44,2.44,0,0,1-2.93,0,93.76,93.76,0,0,1-9.54-8.27h0A95.85,95.85,0,0,1,31.21,34h0a2.48,2.48,0,0,1,0-2.94,96.22,96.22,0,0,1,8.28-9.53h0A96.63,96.63,0,0,1,49,13.29a2.46,2.46,0,0,1,2.93,0h0a93.76,93.76,0,0,1,9.54,8.27h0a91.71,91.71,0,0,1,8.29,9.68h0A2.06,2.06,0,0,1,69.79,33.89Z"/><path class="2d944c31-8b76-41dc-93b2-5fa9de2b6b68" d="M68.4,31.34a84.57,84.57,0,0,0-7.69-9h0a88.05,88.05,0,0,0-8.85-7.68h0a2.25,2.25,0,0,0-2.71,0,89.5,89.5,0,0,0-8.85,7.68h0a89.5,89.5,0,0,0-7.68,8.85,2.3,2.3,0,0,0,0,2.73h0a89.5,89.5,0,0,0,7.68,8.85h0a88.05,88.05,0,0,0,8.85,7.68,2.3,2.3,0,0,0,2.73,0h0A82.34,82.34,0,0,0,60.53,43h0A88.74,88.74,0,0,0,68.4,33.8a1.91,1.91,0,0,0,0-2.46ZM50.46,18.67,53.36,27H51.42l.36,8a7.38,7.38,0,0,1-2.61,0L49.51,27h-2ZM48.77,45.32l.36-8.18a14.55,14.55,0,0,0,2.8,0l.37,8.19A9.12,9.12,0,0,1,48.77,45.32ZM50,36.66c-6,0-10.9-1.94-10.91-4.33,0-1.64,2.28-3.07,5.68-3.8l2.59,1.66c-2.65.48-4.46,1.45-4.46,2.57,0,1.59,3.66,2.88,8.17,2.88,3.87,0,8.23-1.29,8.23-2.88,0-1-1.18-1.58-2.31-2.14L55.45,31l-.82-2.25,5,1.23-1.13.29s1.92,1,2.32,2.09C61.63,34.74,56.4,36.66,50,36.66Z"/></svg>